<?xml version="1.0" standalone="no"?><!DOCTYPE svg PUBLIC "-//W3C//DTD SVG 1.1//EN" "http://www.w3.org/Graphics/SVG/1.1/DTD/svg11.dtd"><svg t="1592535500345" class="icon" viewBox="0 0 1024 1024" version="1.1" xmlns="http://www.w3.org/2000/svg" p-id="5778" xmlns:xlink="http://www.w3.org/1999/xlink" width="200" height="200"><defs><style type="text/css"></style></defs><path d="M870.4 800.256l-176.64-176.64c-2.048-2.048-4.096-3.584-6.656-5.12 29.696-45.568 47.104-100.352 47.104-158.72 0-161.28-130.56-291.84-291.84-291.84s-291.84 130.56-291.84 291.84 130.56 291.84 291.84 291.84c58.88 0 113.152-17.408 159.232-47.104 1.536 2.048 3.072 4.608 5.12 6.656l176.64 176.64c11.776 11.776 27.648 17.92 43.52 17.92s31.232-6.144 43.52-17.92c24.064-24.576 24.064-63.488 0-87.552m-427.52-140.8c-110.08 0-199.68-89.6-199.68-199.68s89.6-199.68 199.68-199.68 199.68 89.6 199.68 199.68-89.6 199.68-199.68 199.68" p-id="5779"></path></svg>