<?xml version="1.0" standalone="no"?><!DOCTYPE svg PUBLIC "-//W3C//DTD SVG 1.1//EN" "http://www.w3.org/Graphics/SVG/1.1/DTD/svg11.dtd"><svg t="1592535428179" class="icon" viewBox="0 0 1024 1024" version="1.1" xmlns="http://www.w3.org/2000/svg" p-id="4403" xmlns:xlink="http://www.w3.org/1999/xlink" width="200" height="200"><defs><style type="text/css"></style></defs><path d="M959.872 354.688h-14.016v-102.208c0-35.392-28.736-64.128-64.128-64.128h-400.768v-58.112c0-35.392-28.736-64.128-64.128-64.128h-352.704c-35.392 0-64.128 28.736-64.128 64.128v763.52c0 35.392 28.736 64.128 64.128 64.128h817.6c35.392 0 54.464-30.4 64.128-64.128L1024 418.816c0-35.392-28.736-64.128-64.128-64.128z m-889.856-147.712c0-35.392-3.52-68.672 34.944-68.736l256.064 0.768c32.384 0.064 51.072 8.448 51.072 43.84l6.08 77.568 65.536-0.448 342.976-0.128c35.392 0 48.128 12.672 48.128 48.064l-2.752 46.592-729.728 0.128c-35.392 0-55.424 31.936-64.128 64.128l-9.92 70.336 1.728-282.112z m800.96 619.136c-7.808 33.344-12.672 48.064-48.064 48.064l-699.904-5.184c-35.392 0-52.992-12.992-48.064-48.064l70.464-345.088c8.128-34.176 12.672-48.064 48.064-48.064l694.4 5.184c35.392 0 52.096 19.328 46.592 56l-63.488 337.152z" fill="" p-id="4404"></path><path d="M641.984 628.16h-99.968v-99.968a30.016 30.016 0 0 0-60.032 0v99.968h-99.968a30.016 30.016 0 0 0 0 60.032h99.968v99.968a30.016 30.016 0 0 0 60.032 0v-99.968h99.968a30.016 30.016 0 0 0 0-60.032z" fill="" p-id="4405"></path></svg>