<?xml version="1.0" standalone="no"?><!DOCTYPE svg PUBLIC "-//W3C//DTD SVG 1.1//EN" "http://www.w3.org/Graphics/SVG/1.1/DTD/svg11.dtd"><svg t="1592535449560" class="icon" viewBox="0 0 1024 1024" version="1.1" xmlns="http://www.w3.org/2000/svg" p-id="5115" xmlns:xlink="http://www.w3.org/1999/xlink" width="200" height="200"><defs><style type="text/css"></style></defs><path d="M710.763954 710.763954a36.271139 36.271139 0 0 1-50.068184 0l-160.121179-160.175073-160.228968 160.175073a36.217244 36.217244 0 0 1-50.014289 0 36.271139 36.271139 0 0 1 0-50.122079l160.121178-160.067284-160.121178-160.228968a36.217244 36.217244 0 0 1 0-50.014289 36.217244 36.217244 0 0 1 50.014289 0l160.228968 160.175073 160.121179-160.175073a36.271139 36.271139 0 0 1 50.068184 0 36.217244 36.217244 0 0 1 0 50.014289l-160.175073 160.228968 160.175073 160.067284a31.258931 31.258931 0 0 1 0 50.122079M500.574591 0.000539A499.873421 499.873421 0 0 0 0.000539 500.574591a499.873421 499.873421 0 0 0 500.574052 500.520158 499.927316 499.927316 0 0 0 500.520158-500.520158A499.873421 499.873421 0 0 0 500.574591 0.000539" fill="#EB7172" p-id="5116"></path></svg>