<?xml version="1.0" standalone="no"?><!DOCTYPE svg PUBLIC "-//W3C//DTD SVG 1.1//EN" "http://www.w3.org/Graphics/SVG/1.1/DTD/svg11.dtd"><svg t="1592536228070" class="icon" viewBox="0 0 1024 1024" version="1.1" xmlns="http://www.w3.org/2000/svg" p-id="2498" xmlns:xlink="http://www.w3.org/1999/xlink" width="200" height="200"><defs><style type="text/css"></style></defs><path d="M968.1 173.8H311.8c-30 0-54.5-24.5-54.5-54.5s24.5-54.5 54.5-54.5h656.5c30 0 54.5 24.5 54.5 54.5-0.2 30-24.7 54.5-54.7 54.5z m0 390.7H311.8c-30 0-54.5-24.5-54.5-54.5s24.5-54.5 54.5-54.5h656.5c30 0 54.5 24.5 54.5 54.5-0.2 30-24.7 54.5-54.7 54.5z m0 390.7H311.8c-30 0-54.5-24.5-54.5-54.5s24.5-54.5 54.5-54.5h656.5c30 0 54.5 24.5 54.5 54.5-0.2 30-24.7 54.5-54.7 54.5z m0 0M0 120.7c0 20.5 10.9 39.4 28.7 49.7a57.66 57.66 0 0 0 57.4 0c17.8-10.3 28.7-29.2 28.7-49.7 0-31.7-25.7-57.4-57.4-57.4S0 89 0 120.7z m0 0" p-id="2499"></path><path d="M0 511.4c0 20.5 10.9 39.5 28.7 49.7 17.8 10.3 39.6 10.3 57.4 0 17.8-10.3 28.7-29.2 28.7-49.7 0-31.7-25.7-57.4-57.4-57.4S0 479.7 0 511.4z m0 0M0 902.1c0 20.5 10.9 39.4 28.7 49.7a57.66 57.66 0 0 0 57.4 0c17.8-10.3 28.7-29.2 28.7-49.7 0-31.7-25.7-57.4-57.4-57.4S0 870.4 0 902.1z m0 0" p-id="2500"></path></svg>