<?xml version="1.0" standalone="no"?><!DOCTYPE svg PUBLIC "-//W3C//DTD SVG 1.1//EN" "http://www.w3.org/Graphics/SVG/1.1/DTD/svg11.dtd"><svg t="1592535528663" class="icon" viewBox="0 0 1024 1024" version="1.1" xmlns="http://www.w3.org/2000/svg" p-id="5955" xmlns:xlink="http://www.w3.org/1999/xlink" width="200" height="200"><defs><style type="text/css"></style></defs><path d="M450.1 539c-2.9 2.5-6.6 4-10.7 4H254c-9.1 0-16.4-7.3-16.4-16.4 0-9.1 7.3-16.4 16.4-16.4h185.4c9.1 0 16.4 7.3 16.4 16.4 0 4.9-2.2 9.4-5.7 12.4z" p-id="5956"></path><path d="M367.1 603.9c4-7.5 1.2-16.8-6.3-20.8l-79.3-42.8c-10.9-5.9-10.8-21.5 0.2-27.2l80.1-42c7.6-4 10.5-13.4 6.4-20.9l-0.3-0.5c-4-7.5-13.4-10.3-20.9-6.2l-128.5 69.7c-10.7 5.8-10.8 21.2-0.1 27L346 610.3c7.6 4 17 1.2 21.1-6.4zM577.8 539c2.9 2.5 6.6 4 10.7 4h185.4c9.1 0 16.4-7.3 16.4-16.4 0-9.1-7.3-16.4-16.4-16.4H588.5c-9.1 0-16.4 7.3-16.4 16.4 0 4.9 2.2 9.4 5.7 12.4z" p-id="5957"></path><path d="M660.8 603.9c-4-7.5-1.2-16.8 6.3-20.8l79.3-42.8c10.9-5.9 10.8-21.5-0.2-27.2l-80.1-42c-7.6-4-10.5-13.4-6.4-20.9l0.3-0.5c4-7.5 13.4-10.3 20.9-6.2l128.5 69.7c10.7 5.8 10.8 21.2 0.1 27l-127.6 70.1c-7.7 4-17.1 1.2-21.1-6.4zM168.2 956.1c-13.5 0-24.5-11-24.5-24.5v-843c0-13.5 11-24.5 24.5-24.5s24.5 11 24.5 24.5v843c0 13.6-11 24.5-24.5 24.5zM856.9 956.1c-13.5 0-24.5-11-24.5-24.5v-843c0-13.5 11-24.5 24.5-24.5s24.5 11 24.5 24.5v843c0 13.6-11 24.5-24.5 24.5z" p-id="5958"></path></svg>