<?xml version="1.0" standalone="no"?><!DOCTYPE svg PUBLIC "-//W3C//DTD SVG 1.1//EN" "http://www.w3.org/Graphics/SVG/1.1/DTD/svg11.dtd"><svg t="1592535620253" class="icon" viewBox="0 0 1024 1024" version="1.1" xmlns="http://www.w3.org/2000/svg" p-id="6989" xmlns:xlink="http://www.w3.org/1999/xlink" width="200" height="200"><defs><style type="text/css"></style></defs><path d="M454.2 64.8l119.5 0 0 477.5-119.5 0 0-477.5Z" fill="#333" p-id="6990"></path><path d="M683.5 154.7V290.5c79.8 54.3 132.3 145.9 132.3 249.7C815.8 706.9 680.7 842 514 842S212.2 706.9 212.2 540.2c0-103.8 52.5-195.4 132.3-249.7v-135.8C196.4 219.9 93 368 93 540.2c0 232.5 188.5 421 421 421s421-188.5 421-421C935 368 831.6 219.9 683.5 154.7z" fill="#333" p-id="6991"></path></svg>