<?xml version="1.0" standalone="no"?><!DOCTYPE svg PUBLIC "-//W3C//DTD SVG 1.1//EN" "http://www.w3.org/Graphics/SVG/1.1/DTD/svg11.dtd"><svg t="1592535467190" class="icon" viewBox="0 0 1024 1024" version="1.1" xmlns="http://www.w3.org/2000/svg" p-id="5246" xmlns:xlink="http://www.w3.org/1999/xlink" width="200" height="200"><defs><style type="text/css"></style></defs><path d="M362.666667 170.666667a21.333333 21.333333 0 0 1 21.333333 21.333333l-0.042667 23.04H746.666667a64 64 0 0 1 64 64V682.666667h21.333333a21.333333 21.333333 0 0 1 21.333333 21.333333v128a21.333333 21.333333 0 0 1-21.333333 21.333333h-170.666667a21.333333 21.333333 0 0 1-21.333333-21.333333v-128a21.333333 21.333333 0 0 1 21.333333-21.333333h21.333334v-192a21.333333 21.333333 0 0 0-21.333334-21.333334H384v64a21.333333 21.333333 0 0 1-21.333333 21.333334h-170.666667a21.333333 21.333333 0 0 1-21.333333-21.333334v-128a21.333333 21.333333 0 0 1 21.333333-21.333333h170.666667a21.333333 21.333333 0 0 1 21.333333 21.333333v21.333334h277.333333a64 64 0 0 1 64 64V682.666667h42.666667V279.04a21.333333 21.333333 0 0 0-21.333333-21.333333H383.957333L384 320a21.333333 21.333333 0 0 1-21.333333 21.333333h-170.666667a21.333333 21.333333 0 0 1-21.333333-21.333333v-128a21.333333 21.333333 0 0 1 21.333333-21.333333h170.666667zM810.666667 725.333333h-128v85.333334h128v-85.333334zM341.333333 426.666667H213.333333v85.333333h128v-85.333333z m0-213.333334H213.333333v85.333334h128V213.333333z" p-id="5247"></path><path d="M210.645333 674.517333l-19.712 16.298667a8.533333 8.533333 0 0 0-1.109333 12.032l109.610667 132.352a8.533333 8.533333 0 0 0 12.629333 0.554667l209.194667-212.906667a8.533333 8.533333 0 0 0-0.128-12.117333l-18.261334-17.92a8.533333 8.533333 0 0 0-12.074666 0.085333l-182.613334 185.941333-85.504-103.210666a8.533333 8.533333 0 0 0-12.032-1.109334z" p-id="5248"></path></svg>