<?xml version="1.0" standalone="no"?><!DOCTYPE svg PUBLIC "-//W3C//DTD SVG 1.1//EN" "http://www.w3.org/Graphics/SVG/1.1/DTD/svg11.dtd"><svg t="1592536257382" class="icon" viewBox="0 0 1024 1024" version="1.1" xmlns="http://www.w3.org/2000/svg" p-id="3226" xmlns:xlink="http://www.w3.org/1999/xlink" width="200" height="200"><defs><style type="text/css"></style></defs><path d="M270.2112 642.816C224.7072 580.288 196.2912 506.304 196.2912 426.688c0-204.8 164.928-369.792 369.728-369.792s369.792 164.992 369.792 369.792c0 204.8-164.992 369.728-369.792 369.728-79.616 0-153.6-28.416-216.128-68.224l-221.888 221.824a55.04 55.04 0 0 1-79.68 0 55.04 55.04 0 0 1 0-79.616l221.888-227.584z m295.808 96.768c170.688 0 312.96-142.272 312.96-312.96C878.9152 256 736.7072 113.856 565.9552 113.856 395.3952 113.792 253.1232 256 253.1232 426.688c0 170.624 142.272 312.896 312.96 312.896z" fill="#5A5A5A" p-id="3227"></path></svg>