<?xml version="1.0" standalone="no"?><!DOCTYPE svg PUBLIC "-//W3C//DTD SVG 1.1//EN" "http://www.w3.org/Graphics/SVG/1.1/DTD/svg11.dtd"><svg t="1592535334643" class="icon" viewBox="0 0 1024 1024" version="1.1" xmlns="http://www.w3.org/2000/svg" p-id="1744" xmlns:xlink="http://www.w3.org/1999/xlink" width="200" height="200"><defs><style type="text/css"></style></defs><path d="M943.8 869.5L807.1 732.8c-1.8-1.8-3.7-3.4-5.6-4.9 18.8-23 35.2-48.1 48.4-74.7 18.4-37 31.5-76.6 37.8-117.5 3.3-21.4 5.2-42.9 5.2-64.5-0.1-42.1-6.5-84.6-19.5-124.6-12.6-38.7-30.8-75.8-54.4-108.9-24.6-34.6-53.8-64.6-87.5-90.4-32.3-24.8-68.4-44.1-106.7-58.1-39.3-14.4-81.2-22.3-123.1-23.9-42.3-1.6-85.2 3.5-125.9 15-39.2 11.1-77 28.3-111.1 50.6-33.8 22.2-64.6 49.3-90.3 80.6-27.1 32.8-48.5 68.9-64.6 108.2-15.9 38.7-25 79.8-28.2 121.5-3.3 42.4 0.4 85.6 10.5 126.8 9.6 39.7 25.6 78.2 46.8 113.2 20.9 34.6 47.2 66.3 77.4 93.1 30.3 26.9 64.4 49.5 101.3 66.2 39.7 17.9 81.1 29.3 124.3 34.3 42.4 4.9 85.6 2.6 127.4-5.9 40.2-8.1 79.3-22.9 115.1-42.8 15.1-8.4 29.7-17.8 43.6-28.1 1.8 2.7 3.9 5.2 6.3 7.6L871 942.3c10 10 23.2 15.1 36.4 15.1s26.4-5 36.4-15.1c20.1-20.1 20.1-52.7 0-72.8zM736.6 730.7c-0.8 0.7-1.5 1.4-2.3 2.1l-0.7 0.7c-3.4 3.3-6.9 6.4-10.5 9.6-3.5 3.1-7.1 6.1-10.7 9.1-1.8 1.4-3.6 2.9-5.4 4.3-0.8 0.6-1.5 1.2-2.3 1.7-7.7 5.7-15.5 11.2-23.6 16.3-17.4 11.1-35.8 20.8-54.7 29-29.3 12-60 20.4-91.3 24.9-32.1 4-64.7 4-96.8 0-31.4-4.5-62.1-12.9-91.5-24.9-16.8-7.2-33-15.6-48.6-25.2-8.2-5-16.1-10.3-23.9-15.9-1.8-1.3-3.5-2.6-5.3-3.9l-2.4-1.8c-3.7-2.9-7.4-5.9-11-9-14.6-12.3-28.2-25.7-40.8-40.1-3.1-3.5-6.1-7.1-9.1-10.7-1.4-1.8-2.9-3.6-4.3-5.4-0.6-0.8-1.2-1.5-1.7-2.3-5.7-7.7-11.2-15.5-16.3-23.6-11.1-17.4-20.8-35.8-29-54.7-12-29.3-20.4-60-24.9-91.3-4-32.1-4-64.7 0-96.8 4.5-31.4 12.9-62.1 24.9-91.5 7.2-16.8 15.6-33 25.2-48.6 5-8.2 10.3-16.1 15.9-23.9 1.3-1.8 2.6-3.5 3.9-5.3l1.8-2.4c2.9-3.7 5.9-7.4 9-11 12.3-14.6 25.7-28.2 40.1-40.8 3.5-3.1 7.1-6.1 10.7-9.1 1.8-1.4 3.6-2.9 5.4-4.3 0.8-0.6 1.5-1.2 2.3-1.7 7.7-5.7 15.5-11.2 23.6-16.3 17.4-11.1 35.8-20.8 54.7-29 29.3-12 60-20.4 91.3-24.9 32.1-4 64.7-4 96.8 0 31.4 4.5 62.1 12.9 91.5 24.9 16.8 7.2 33 15.6 48.6 25.2 8.2 5 16.1 10.3 23.9 15.9 1.8 1.3 3.5 2.6 5.3 3.9l2.4 1.8c3.7 2.9 7.4 5.9 11 9 14.6 12.3 28.2 25.7 40.8 40.1 3.1 3.5 6.1 7.1 9.1 10.7 1.4 1.8 2.9 3.6 4.3 5.4 0.6 0.8 1.2 1.5 1.7 2.3 5.7 7.7 11.2 15.5 16.3 23.6 11.1 17.4 20.8 35.8 29 54.7 12 29.3 20.4 60 24.9 91.3a391.841 391.841 0 0 1 0 96.8c-4.5 31.4-12.9 62.1-24.9 91.5-7.2 16.8-15.6 33-25.2 48.6-5 8.2-10.3 16.1-15.9 23.9-1.3 1.8-2.6 3.5-3.9 5.3l-1.8 2.4c-2.9 3.7-5.9 7.4-9 11-8.4 9.9-17.3 19.4-26.6 28.4z m174.7 179.1c-2.1 2.1-5.7 2.1-7.8 0L766.8 773.1c-1.4-1.4-1.6-3-1.6-3.9 0-0.8 0.2-2.2 1.2-3.5 0.3-0.3 0.7-0.6 1-1 1.2-0.9 2.5-1 3.3-1 0.9 0 2.5 0.2 3.9 1.6L911.3 902c1.4 1.4 1.6 3 1.6 3.9s-0.3 2.5-1.6 3.9z" p-id="1745"></path><path d="M738.2 448.8c-4.5-4.1-10-6.7-16.3-6.7H514.2V251.7c0-6 0.1-12 0-17.9v-0.8c0-5.9-2.6-12.1-6.7-16.3-4-4-10.5-7-16.3-6.7-5.9 0.3-12.1 2.2-16.3 6.7-4.1 4.5-6.7 10-6.7 16.3v209H260.5c-5.9 0-12.1 2.6-16.3 6.7-4 4-7 10.5-6.7 16.3 0.3 5.9 2.2 12.1 6.7 16.3 4.5 4.1 10 6.7 16.3 6.7h207.7v187.7c0 6-0.1 12 0 17.9v0.8c0 5.9 2.6 12.1 6.7 16.3 4 4 10.5 7 16.3 6.7 5.9-0.3 12.1-2.2 16.3-6.7 4.1-4.5 6.7-10 6.7-16.3V488h189c6 0 12 0.1 17.9 0h0.8c5.9 0 12.1-2.6 16.3-6.7 4-4 7-10.5 6.7-16.3-0.2-5.9-2.2-12-6.7-16.2z" p-id="1746"></path></svg>