<?xml version="1.0" standalone="no"?><!DOCTYPE svg PUBLIC "-//W3C//DTD SVG 1.1//EN" "http://www.w3.org/Graphics/SVG/1.1/DTD/svg11.dtd"><svg t="1592535377292" class="icon" viewBox="0 0 1036 1024" version="1.1" xmlns="http://www.w3.org/2000/svg" p-id="3071" xmlns:xlink="http://www.w3.org/1999/xlink" width="202.34375" height="200"><defs><style type="text/css"></style></defs><path d="M939.746835 881.417722c6.481013 6.481013 6.481013 12.962025 6.481013 25.92405 0 6.481013-6.481013 19.443038-6.481013 25.924051-6.481013 6.481013-12.962025 12.962025-25.92405 6.481012-6.481013 0-19.443038-6.481013-25.924051-6.481012l-194.43038-200.911393c-64.810127 58.329114-149.063291 84.253165-233.316455 84.253165-103.696203 0-187.949367-38.886076-259.240507-110.177215s-110.177215-162.025316-110.177215-259.240507c0-103.696203 38.886076-187.949367 110.177215-259.240506s155.544304-110.177215 259.240507-110.177215 187.949367 38.886076 259.240506 110.177215 110.177215 162.025316 110.177215 259.240506c0 84.253165-25.924051 168.506329-84.253164 233.316456l194.430379 200.911393z m-369.417721-155.544304c38.886076-12.962025 64.810127-38.886076 97.21519-64.810127 25.924051-25.924051 51.848101-58.329114 64.810126-97.21519 12.962025-38.886076 25.924051-77.772152 25.924051-116.658228 0-38.886076-6.481013-77.772152-25.924051-116.658227-12.962025-38.886076-38.886076-71.291139-64.810126-97.21519-25.924051-25.924051-58.329114-51.848101-97.21519-64.810127-32.405063-12.962025-71.291139-25.924051-110.177215-25.924051-38.886076 0-77.772152 6.481013-116.658228 25.924051-38.886076 12.962025-64.810127 38.886076-97.21519 64.810127-25.924051 25.924051-51.848101 58.329114-64.810127 97.21519-12.962025 32.405063-25.924051 77.772152-25.92405 116.658227 0 38.886076 6.481013 77.772152 25.92405 116.658228 12.962025 38.886076 38.886076 64.810127 64.810127 97.21519 25.924051 25.924051 58.329114 51.848101 97.21519 64.810127 38.886076 12.962025 77.772152 25.924051 116.658228 25.92405 38.886076-6.481013 77.772152-12.962025 110.177215-25.92405z m-259.240506-246.278481c-19.443038 0-32.405063-12.962025-32.405064-32.405064s12.962025-32.405063 32.405064-32.405063h278.683544c19.443038 0 32.405063 12.962025 32.405063 32.405063s-6.481013 32.405063-25.92405 32.405064H311.088608z" fill="#333333" p-id="3072"></path></svg>