<?xml version="1.0" standalone="no"?><!DOCTYPE svg PUBLIC "-//W3C//DTD SVG 1.1//EN" "http://www.w3.org/Graphics/SVG/1.1/DTD/svg11.dtd"><svg t="1590369313150" class="icon" viewBox="0 0 1024 1024" version="1.1" xmlns="http://www.w3.org/2000/svg" p-id="1768" xmlns:xlink="http://www.w3.org/1999/xlink" width="200" height="200"><defs><style type="text/css"></style></defs><path d="M899.573389 1024h-775.243683A124.523517 124.523517 0 0 1 0 899.573389v-775.243683A124.523517 124.523517 0 0 1 124.329706 0h775.243683a124.523517 124.523517 0 0 1 124.426611 124.329706v775.243683a124.523517 124.523517 0 0 1-124.426611 124.426611z m-775.243683-969.054604a69.481215 69.481215 0 0 0-69.38431 69.38431v775.243683a69.481215 69.481215 0 0 0 69.38431 69.481215h775.243683a69.481215 69.481215 0 0 0 69.481215-69.481215v-775.243683a69.481215 69.481215 0 0 0-69.481215-69.38431z" p-id="1769"></path><path d="M617.481594 295.949276a27.521151 27.521151 0 0 1-27.424246-27.521151v-116.286552a27.521151 27.521151 0 0 1 54.945396 0v116.286552a27.521151 27.521151 0 0 1-27.52115 27.521151z" p-id="1770"></path><path d="M899.573389 1024h-96.905461a27.521151 27.521151 0 0 1-27.424245-27.521151v-271.335289a69.481215 69.481215 0 0 0-69.481215-69.38431h-387.621842a69.481215 69.481215 0 0 0-69.384309 69.38431v271.335289a27.521151 27.521151 0 0 1-27.521151 27.521151h-96.90546A124.523517 124.523517 0 0 1 0 899.573389v-775.243683A124.523517 124.523517 0 0 1 124.329706 0h135.667644a27.521151 27.521151 0 0 1 27.521151 27.424245v290.716381A69.481215 69.481215 0 0 0 356.902811 387.621842h319.788019A69.481215 69.481215 0 0 0 746.172045 318.140626v-290.716381A27.424245 27.424245 0 0 1 773.59629 0h125.977099a124.523517 124.523517 0 0 1 124.426611 124.329706v775.243683a124.523517 124.523517 0 0 1-124.426611 124.426611zM830.189079 969.054604h69.38431a69.481215 69.481215 0 0 0 69.481215-69.481215v-775.243683a69.481215 69.481215 0 0 0-69.481215-69.38431H801.117441v263.19523a124.523517 124.523517 0 0 1-124.426611 124.426612h-319.788019A124.523517 124.523517 0 0 1 232.573105 318.140626V54.945396H124.329706a69.481215 69.481215 0 0 0-69.38431 69.38431v775.243683a69.481215 69.481215 0 0 0 69.38431 69.481215H193.810921V725.14356A124.523517 124.523517 0 0 1 318.140626 600.813854h387.621842a124.523517 124.523517 0 0 1 124.426611 124.329706z" p-id="1771"></path></svg>